<?xml version="1.0" encoding="UTF-8" standalone="no"?>
<svg
   xmlns:dc="http://purl.org/dc/elements/1.1/"
   xmlns:cc="http://creativecommons.org/ns#"
   xmlns:rdf="http://www.w3.org/1999/02/22-rdf-syntax-ns#"
   xmlns:svg="http://www.w3.org/2000/svg"
   xmlns="http://www.w3.org/2000/svg"
   xmlns:sodipodi="http://sodipodi.sourceforge.net/DTD/sodipodi-0.dtd"
   xmlns:inkscape="http://www.inkscape.org/namespaces/inkscape"
   width="170.00017"
   height="215"
   viewBox="0 0 170.00017 215"
   version="1.1"
   id="svg8"
   sodipodi:docname="gc.svg"
   style="fill:none"
   inkscape:version="0.92.5 (2060ec1f9f, 2020-04-08)">
  <metadata
     id="metadata14">
    <rdf:RDF>
      <cc:Work
         rdf:about="">
        <dc:format>image/svg+xml</dc:format>
        <dc:type
           rdf:resource="http://purl.org/dc/dcmitype/StillImage" />
      </cc:Work>
    </rdf:RDF>
  </metadata>
  <defs
     id="defs12" />
  <sodipodi:namedview
     pagecolor="#ffffff"
     bordercolor="#666666"
     borderopacity="1"
     objecttolerance="10"
     gridtolerance="10"
     guidetolerance="10"
     inkscape:pageopacity="0"
     inkscape:pageshadow="2"
     inkscape:window-width="1920"
     inkscape:window-height="994"
     id="namedview10"
     showgrid="false"
     inkscape:zoom="0.47411765"
     inkscape:cx="75.878424"
     inkscape:cy="107"
     inkscape:window-x="0"
     inkscape:window-y="28"
     inkscape:window-maximized="1"
     inkscape:current-layer="svg8" />
  <path
     d="m 140.93301,84.436 c 6.956,9.75 10.732,21.59 10.633,33.529 0,11.74 -3.776,23.48 -10.633,33.031 l 14.508,11.043 c 9.241,-12.735 14.309,-28.255 14.309,-43.975 0.1,-16.615 -5.366,-32.931 -15.402,-46.064 l -8.32,7.5 z"
     id="path4"
     inkscape:connector-curvature="0"
     style="clip-rule:evenodd;fill:#ffffff;fill-rule:evenodd" />
  <path
     d="m 168.35901,171.821 -48.79,-37.11 c 3.478,-4.577 5.465,-10.148 5.763,-15.919 0.199,-5.77 -1.291,-11.441 -4.372,-16.316 l 23.352,-21.092 24.445,-22.883 c 1.59,-1.4927 1.689,-4.0794 0.099,-5.6713 l -3.378,-3.3827 c -17.39,-17.6099 -40.841,-27.8575 -65.484999,-28.6534 l 0.1,-13.4313 c 0.099,-0.8954 0,-1.7908 -0.198999,-2.6862 -0.298,-0.8954 -0.696,-1.6914 -1.292,-2.3878 -0.596,-0.6964 -1.292,-1.1939 -2.186,-1.5919 -0.795,-0.3979 -1.689,-0.5969 -2.584,-0.5969 -0.894,0 -1.788,0.199 -2.583,0.5969 -0.795,0.398 -1.59,0.8955 -2.186,1.5919 -0.597,0.6964 -1.094,1.4924 -1.292,2.2883 -0.298,0.8954 -0.398,1.7908 -0.199,2.6862 l -0.099,13.8293 c -5.863,0.5969 -11.726,1.6913 -17.39,3.3827 l 0.099,-17.212 c 0.1,-0.8954 0,-1.7908 -0.198,-2.6862 -0.298,-0.8954 -0.696,-1.6914 -1.292,-2.3878 -0.596,-0.6964 -1.292,-1.1939 -2.186,-1.5919 -0.795,-0.3979 -1.69,-0.5969 -2.584,-0.5969 -0.894,0 -1.789,0.199 -2.583,0.5969 -0.795,0.398 -1.59,0.8955 -2.187,1.5919 -0.596,0.6964 -1.093,1.4924 -1.291,2.2883 -0.299,0.8954 -0.398,1.7908 -0.199,2.6863 l -0.298,21.9875 c -20.0728,8.9541 -36.5681,24.5742 -46.6044,44.1741 -10.03629953,19.6 -13.2161995,42.085 -8.8438995,63.674 4.3722,21.59 15.9984995,41.09 32.8911995,55.218 16.8931,14.127 38.1581,22.087 60.1181,22.485 L 165.97401,215 c 2.187,0 3.975,-1.791 3.975,-3.98 v -35.916 c 0,-1.293 -0.596,-2.487 -1.59,-3.283 z M 96.317011,197.39 c -17.489,-0.099 -34.482,-5.969 -48.294,-16.615 -13.8123,-10.745 -23.7492,-25.768 -28.2208,-42.682 -4.4716,-16.913 -3.1798,-34.921 3.4779,-51.038 6.7571,-16.118 18.582,-29.6487 33.7859,-38.4039 l -0.1,26.1659 c -0.099,0.896 0,1.791 0.199,2.686 0.298,0.896 0.696,1.692 1.292,2.388 0.596,0.697 1.292,1.194 2.186,1.592 0.795,0.398 1.689,0.597 2.584,0.597 0.894,0 1.788,-0.199 2.583,-0.597 0.795,-0.398 1.59,-0.895 2.186,-1.592 0.596,-0.696 1.093,-1.492 1.292,-2.288 0.298,-0.895 0.398,-1.791 0.199,-2.686 l 0.099,-32.1359 c 8.745,-3.1837 17.986,-4.6761 27.327,-4.6761 17.190999,0 33.884999,5.671 47.497999,16.0181 0.994,0.7959 1.093,2.1888 0.199,3.0842 l -37.164,34.1257 c -3.379,-1.393 -7.055,-2.189 -10.731999,-2.189 -4.074,0 -8.148,0.796 -11.924,2.487 -3.776,1.692 -7.056,4.179 -9.739,7.263 -2.682,3.084 -4.67,6.765 -5.862,10.646 -1.193,3.979 -1.491,8.058 -0.895,12.137 0.597,4.08 1.988,7.96 4.174,11.442 2.186,3.482 5.167,6.367 8.546,8.656 3.478,2.188 7.353,3.681 11.427,4.278 4.074,0.597 8.247999,0.298 12.122999,-0.896 l 47.499,36.116 c 0.497,0.398 0.795,0.994 0.795,1.591 l -0.1,12.735 c 0,1.095 -0.894,1.99 -1.987,1.99 z m 11.625999,-79.593 c 0,2.189 -0.696,4.378 -1.888,6.268 -1.292,1.891 -2.981,3.283 -5.068,4.179 -2.086999,0.895 -4.371999,1.094 -6.458999,0.597 -2.087,-0.498 -4.174,-1.493 -5.764,-3.084 -1.589,-1.592 -2.683,-3.582 -3.08,-5.771 -0.397,-2.189 -0.199,-4.477 0.696,-6.467 0.894,-2.089 2.285,-3.78 4.173,-5.074 1.888,-1.194 4.074,-1.89 6.26,-1.89 2.981,0 5.862999,1.194 7.949999,3.383 1.987,1.989 3.18,4.775 3.18,7.859 z"
     id="path6"
     inkscape:connector-curvature="0"
     style="clip-rule:evenodd;fill:#ffffff;fill-rule:evenodd" />
</svg>
