<?xml version="1.0" encoding="UTF-8" standalone="no"?>
<svg
   xmlns:dc="http://purl.org/dc/elements/1.1/"
   xmlns:cc="http://creativecommons.org/ns#"
   xmlns:rdf="http://www.w3.org/1999/02/22-rdf-syntax-ns#"
   xmlns:svg="http://www.w3.org/2000/svg"
   xmlns="http://www.w3.org/2000/svg"
   xmlns:sodipodi="http://sodipodi.sourceforge.net/DTD/sodipodi-0.dtd"
   xmlns:inkscape="http://www.inkscape.org/namespaces/inkscape"
   id="Bold"
   viewBox="0 0 24 24"
   version="1.1"
   sodipodi:docname="meetup.svg"
   inkscape:version="0.92.5 (2060ec1f9f, 2020-04-08)">
  <metadata
     id="metadata31">
    <rdf:RDF>
      <cc:Work
         rdf:about="">
        <dc:format>image/svg+xml</dc:format>
        <dc:type
           rdf:resource="http://purl.org/dc/dcmitype/StillImage" />
      </cc:Work>
    </rdf:RDF>
  </metadata>
  <defs
     id="defs29" />
  <sodipodi:namedview
     pagecolor="#ffffff"
     bordercolor="#666666"
     borderopacity="1"
     objecttolerance="10"
     gridtolerance="10"
     guidetolerance="10"
     inkscape:pageopacity="0"
     inkscape:pageshadow="2"
     inkscape:window-width="815"
     inkscape:window-height="480"
     id="namedview27"
     showgrid="false"
     inkscape:zoom="9.8333333"
     inkscape:cx="12"
     inkscape:cy="12"
     inkscape:window-x="0"
     inkscape:window-y="28"
     inkscape:window-maximized="0"
     inkscape:current-layer="Bold" />
  <title
     id="title2" />
  <path
     d="M11.53,20.31a3.18,3.18,0,0,1-1,.55,3.59,3.59,0,0,1-4.71-2.4,5.49,5.49,0,0,1-.13-.74c0-.19,0-.15-.17-.19a3.16,3.16,0,0,1-2.42-2,3.25,3.25,0,0,1,.78-3.59.14.14,0,0,0,0-.2A3.1,3.1,0,0,1,5.13,7.43a2.78,2.78,0,0,1,.95-.32A.22.22,0,0,0,6.27,7,4.62,4.62,0,0,1,13,4.78a.21.21,0,0,0,.2,0,4.11,4.11,0,0,1,4.53,1.31,4,4,0,0,1,.88,2.77A.13.13,0,0,0,18.7,9,2.25,2.25,0,0,1,20,12.13a2.21,2.21,0,0,1-.55.74.1.1,0,0,0,0,.15,3.91,3.91,0,0,1-3.06,5.92H16c-.07,0-.1,0-.12.09a2.63,2.63,0,0,1-.63,1.12,2.6,2.6,0,0,1-1.59.81,2.68,2.68,0,0,1-2.09-.61l-.06,0Zm4-3.58a1.66,1.66,0,0,0,.75-.14.56.56,0,0,0-.07-1L16,15.51l-.7-.12c-.44-.09-.62-.3-.58-.75a3.24,3.24,0,0,1,.17-.82c.2-.56.44-1.12.67-1.67s.49-1.18.72-1.78a1.63,1.63,0,0,0,.1-.95,1.19,1.19,0,0,0-.74-1,1.84,1.84,0,0,0-1.6.09.32.32,0,0,1-.45-.05c-.12-.11-.24-.23-.37-.33A.94.94,0,0,0,12.89,8a1.13,1.13,0,0,0-1.06.23l-.29.26a2.93,2.93,0,0,1-.33.24.44.44,0,0,1-.44,0l-.85-.4a1.27,1.27,0,0,0-.77-.12,1.85,1.85,0,0,0-1.42,1,7.56,7.56,0,0,0-.46,1.11q-.66,2-1.28,4.07a1.37,1.37,0,0,0,.35,1.44,1.59,1.59,0,0,0,1.26.44,1.15,1.15,0,0,0,1-.66,2.26,2.26,0,0,0,.12-.25L10,12.08c.15-.39.31-.77.47-1.15a.52.52,0,0,1,.5-.29.46.46,0,0,1,.37.38.76.76,0,0,1,0,.44l-.69,1.77c-.15.4-.32.79-.46,1.19a.61.61,0,0,0,.3.81A1,1,0,0,0,11.58,15a2.54,2.54,0,0,0,.27-.42l1.68-3.31c.09-.18.18-.37.29-.54a1.61,1.61,0,0,1,.3-.36.34.34,0,0,1,.4,0,.29.29,0,0,1,.12.33,1.06,1.06,0,0,1-.08.3c-.15.33-.3.66-.45,1-.33.72-.69,1.42-1,2.15a1.86,1.86,0,0,0,1.13,2.44A4.31,4.31,0,0,0,15.48,16.73Z"
     id="path4"
     style="fill:#ffffff" />
  <circle
     cx="17.32"
     cy="20.6"
     r="0.96"
     transform="translate(-0.03 0.02) rotate(-0.08)"
     id="circle6"
     style="fill:#ffffff" />
  <circle
     cx="1.83"
     cy="11.54"
     r="0.91"
     transform="translate(-9.73 13.32) rotate(-89.74)"
     id="circle8"
     style="fill:#ffffff" />
  <path
     d="M13.33,3.82a.91.91,0,1,1,.9-.91A.9.9,0,0,1,13.33,3.82Z"
     id="path10"
     style="fill:#ffffff" />
  <circle
     cx="20.15"
     cy="7.8"
     r="0.77"
     transform="translate(-0.01 0.03) rotate(-0.09)"
     id="circle12"
     style="fill:#ffffff" />
  <path
     d="M4.66,5.52a.69.69,0,0,1,.7-.69.7.7,0,0,1,.69.69.71.71,0,0,1-.7.7A.7.7,0,0,1,4.66,5.52Z"
     id="path14"
     style="fill:#ffffff" />
  <circle
     cx="11.45"
     cy="21.99"
     r="0.59"
     id="circle16"
     style="fill:#ffffff" />
  <path
     d="M22.11,13.14a.57.57,0,1,1-.57-.57A.56.56,0,0,1,22.11,13.14Z"
     id="path18"
     style="fill:#ffffff" />
  <ellipse
     cx="7.36"
     cy="1.9"
     rx="0.48"
     ry="0.48"
     transform="translate(-0.01 0.04) rotate(-0.31)"
     id="ellipse20"
     style="fill:#ffffff" />
  <path
     d="M23.09,10.31a.42.42,0,0,1-.43.42.42.42,0,0,1,0-.85A.42.42,0,0,1,23.09,10.31Z"
     id="path22"
     style="fill:#ffffff" />
  <path
     d="M4.25,18.63a.42.42,0,0,1,.84,0,.42.42,0,1,1-.84,0Z"
     id="path24"
     style="fill:#ffffff" />
</svg>
