<?xml version="1.0" encoding="UTF-8" standalone="no"?>
<svg
   viewBox="0 0 773.12 773.12"
   version="1.1"
   id="svg2"
   sodipodi:docname="zulip-icon-mono.svg"
   inkscape:version="1.3.2 (091e20ef0f, 2023-11-25)"
   xmlns:inkscape="http://www.inkscape.org/namespaces/inkscape"
   xmlns:sodipodi="http://sodipodi.sourceforge.net/DTD/sodipodi-0.dtd"
   xmlns="http://www.w3.org/2000/svg"
   xmlns:svg="http://www.w3.org/2000/svg">
  <defs
     id="defs2" />
  <sodipodi:namedview
     id="namedview2"
     pagecolor="#ffffff"
     bordercolor="#000000"
     borderopacity="0.25"
     inkscape:showpageshadow="2"
     inkscape:pageopacity="0.0"
     inkscape:pagecheckerboard="0"
     inkscape:deskcolor="#d1d1d1"
     showgrid="false"
     inkscape:zoom="1.0515832"
     inkscape:cx="385.60905"
     inkscape:cy="386.56"
     inkscape:window-width="960"
     inkscape:window-height="1011"
     inkscape:window-x="960"
     inkscape:window-y="32"
     inkscape:window-maximized="0"
     inkscape:current-layer="svg2" />
  <linearGradient
     id="a"
     x1="0"
     y1="0"
     x2="0"
     y2="1">
    <stop
       offset="0"
       stop-color="#50adff"
       id="stop1" />
    <stop
       offset="1"
       stop-color="#7877fc"
       id="stop2" />
  </linearGradient>
  <path
     d="M566.66 527.25c0 33.03-24.23 60.05-53.84 60.05H260.29c-29.61 0-53.84-27.02-53.84-60.05 0-20.22 9.09-38.2 22.93-49.09l134.37-120c2.5-2.14 5.74 1.31 3.94 4.19l-49.29 98.69c-1.38 2.76.41 6.16 3.25 6.16h191.18c29.61 0 53.83 27.03 53.83 60.05zm0-281.39c0 20.22-9.09 38.2-22.93 49.09l-134.37 120c-2.5 2.14-5.74-1.31-3.94-4.19l49.29-98.69c1.38-2.76-.41-6.16-3.25-6.16H260.29c-29.61 0-53.84-27.02-53.84-60.05s24.23-60.05 53.84-60.05h252.54c29.61 0 53.83 27.02 53.83 60.05z"
     fill="#fff"
     id="path2"
     style="fill:#ffffff" />
</svg>
